<svg width="516" height="94" viewBox="0 0 516 94" fill="none" xmlns="http://www.w3.org/2000/svg">
<g filter="url(#filter0_d_52_71)">
<rect x="73" y="20" width="370" height="54" rx="10" fill="#EEE0C9"/>
</g>
<path d="M114.82 55.24C112.948 55.24 111.364 54.888 110.068 54.184C108.788 53.48 107.812 52.48 107.14 51.184C106.468 49.888 106.132 48.352 106.132 46.576C106.132 45.232 106.324 44.024 106.708 42.952C107.108 41.88 107.676 40.968 108.412 40.216C109.164 39.448 110.076 38.864 111.148 38.464C112.22 38.048 113.436 37.84 114.796 37.84C115.692 37.84 116.588 37.952 117.484 38.176C118.396 38.384 119.252 38.744 120.052 39.256C120.324 39.432 120.5 39.648 120.58 39.904C120.676 40.16 120.692 40.424 120.628 40.696C120.564 40.952 120.444 41.176 120.268 41.368C120.092 41.56 119.868 41.68 119.596 41.728C119.34 41.776 119.052 41.712 118.732 41.536C118.124 41.184 117.508 40.928 116.884 40.768C116.26 40.608 115.564 40.528 114.796 40.528C113.612 40.528 112.612 40.768 111.796 41.248C110.98 41.712 110.364 42.392 109.948 43.288C109.548 44.184 109.348 45.28 109.348 46.576C109.348 48.544 109.82 50.04 110.764 51.064C111.708 52.088 113.108 52.6 114.964 52.6C115.604 52.6 116.252 52.536 116.908 52.408C117.564 52.28 118.204 52.104 118.828 51.88L118.228 53.248V48.136H115.588C115.188 48.136 114.876 48.032 114.652 47.824C114.444 47.616 114.34 47.336 114.34 46.984C114.34 46.616 114.444 46.336 114.652 46.144C114.876 45.952 115.188 45.856 115.588 45.856H119.548C119.948 45.856 120.252 45.968 120.46 46.192C120.684 46.4 120.796 46.704 120.796 47.104V52.936C120.796 53.288 120.724 53.584 120.58 53.824C120.452 54.064 120.236 54.24 119.932 54.352C119.228 54.608 118.42 54.824 117.508 55C116.596 55.16 115.7 55.24 114.82 55.24ZM125.988 55C125.46 55 125.052 54.864 124.764 54.592C124.492 54.304 124.356 53.896 124.356 53.368V39.712C124.356 39.184 124.492 38.784 124.764 38.512C125.052 38.224 125.46 38.08 125.988 38.08H134.556C134.956 38.08 135.26 38.184 135.468 38.392C135.692 38.6 135.804 38.896 135.804 39.28C135.804 39.68 135.692 39.992 135.468 40.216C135.26 40.424 134.956 40.528 134.556 40.528H127.308V45.184H134.028C134.444 45.184 134.756 45.288 134.964 45.496C135.172 45.704 135.276 46.008 135.276 46.408C135.276 46.808 135.172 47.112 134.964 47.32C134.756 47.528 134.444 47.632 134.028 47.632H127.308V52.552H134.556C134.956 52.552 135.26 52.656 135.468 52.864C135.692 53.072 135.804 53.376 135.804 53.776C135.804 54.176 135.692 54.48 135.468 54.688C135.26 54.896 134.956 55 134.556 55H125.988ZM144.175 55.192C143.679 55.192 143.295 55.056 143.023 54.784C142.767 54.496 142.639 54.104 142.639 53.608V40.648H137.959C137.543 40.648 137.215 40.536 136.975 40.312C136.751 40.072 136.639 39.752 136.639 39.352C136.639 38.936 136.751 38.624 136.975 38.416C137.215 38.192 137.543 38.08 137.959 38.08H150.391C150.807 38.08 151.127 38.192 151.351 38.416C151.591 38.624 151.711 38.936 151.711 39.352C151.711 39.752 151.591 40.072 151.351 40.312C151.127 40.536 150.807 40.648 150.391 40.648H145.711V53.608C145.711 54.104 145.583 54.496 145.327 54.784C145.071 55.056 144.687 55.192 144.175 55.192ZM161.613 55C161.085 55 160.677 54.864 160.389 54.592C160.117 54.304 159.981 53.896 159.981 53.368V39.712C159.981 39.184 160.117 38.784 160.389 38.512C160.677 38.224 161.085 38.08 161.613 38.08H166.269C169.101 38.08 171.285 38.808 172.821 40.264C174.373 41.72 175.149 43.808 175.149 46.528C175.149 47.888 174.949 49.096 174.549 50.152C174.165 51.192 173.589 52.072 172.821 52.792C172.069 53.512 171.141 54.064 170.037 54.448C168.949 54.816 167.693 55 166.269 55H161.613ZM163.053 52.456H166.077C167.069 52.456 167.925 52.336 168.645 52.096C169.381 51.84 169.989 51.472 170.469 50.992C170.965 50.496 171.333 49.88 171.573 49.144C171.813 48.392 171.933 47.52 171.933 46.528C171.933 44.544 171.445 43.064 170.469 42.088C169.493 41.112 168.029 40.624 166.077 40.624H163.053V52.456ZM179.798 55.192C179.302 55.192 178.918 55.056 178.646 54.784C178.39 54.496 178.262 54.104 178.262 53.608V39.64C178.262 39.128 178.398 38.744 178.67 38.488C178.942 38.216 179.326 38.08 179.822 38.08H185.606C187.462 38.08 188.894 38.528 189.902 39.424C190.91 40.304 191.414 41.544 191.414 43.144C191.414 44.184 191.182 45.08 190.718 45.832C190.27 46.584 189.614 47.16 188.75 47.56C187.886 47.96 186.838 48.16 185.606 48.16L185.822 47.8H186.614C187.27 47.8 187.838 47.96 188.318 48.28C188.814 48.6 189.246 49.104 189.614 49.792L191.414 53.128C191.606 53.464 191.694 53.792 191.678 54.112C191.662 54.432 191.542 54.696 191.318 54.904C191.094 55.096 190.766 55.192 190.334 55.192C189.902 55.192 189.55 55.104 189.278 54.928C189.006 54.736 188.766 54.448 188.558 54.064L186.134 49.6C185.846 49.056 185.502 48.696 185.102 48.52C184.718 48.328 184.222 48.232 183.614 48.232H181.334V53.608C181.334 54.104 181.206 54.496 180.95 54.784C180.694 55.056 180.31 55.192 179.798 55.192ZM181.334 45.952H185.078C186.182 45.952 187.014 45.728 187.574 45.28C188.15 44.816 188.438 44.128 188.438 43.216C188.438 42.32 188.15 41.648 187.574 41.2C187.014 40.736 186.182 40.504 185.078 40.504H181.334V45.952ZM196.251 55.192C195.755 55.192 195.371 55.056 195.099 54.784C194.843 54.496 194.715 54.104 194.715 53.608V39.472C194.715 38.96 194.843 38.568 195.099 38.296C195.371 38.024 195.755 37.888 196.251 37.888C196.747 37.888 197.123 38.024 197.379 38.296C197.651 38.568 197.787 38.96 197.787 39.472V53.608C197.787 54.104 197.659 54.496 197.403 54.784C197.147 55.056 196.763 55.192 196.251 55.192ZM208.209 55.192C207.777 55.192 207.417 55.096 207.129 54.904C206.857 54.696 206.633 54.392 206.457 53.992L200.193 39.928C200.017 39.528 199.969 39.176 200.049 38.872C200.129 38.568 200.297 38.328 200.553 38.152C200.809 37.976 201.113 37.888 201.465 37.888C201.929 37.888 202.273 37.992 202.497 38.2C202.737 38.392 202.937 38.688 203.097 39.088L208.785 52.264H207.753L213.417 39.064C213.593 38.68 213.801 38.392 214.041 38.2C214.281 37.992 214.617 37.888 215.049 37.888C215.401 37.888 215.689 37.976 215.913 38.152C216.153 38.328 216.305 38.568 216.369 38.872C216.433 39.176 216.377 39.528 216.201 39.928L209.937 53.992C209.761 54.392 209.537 54.696 209.265 54.904C209.009 55.096 208.657 55.192 208.209 55.192ZM220.134 55.192C219.638 55.192 219.254 55.056 218.982 54.784C218.726 54.496 218.598 54.104 218.598 53.608V39.472C218.598 38.96 218.726 38.568 218.982 38.296C219.254 38.024 219.638 37.888 220.134 37.888C220.63 37.888 221.006 38.024 221.262 38.296C221.534 38.568 221.67 38.96 221.67 39.472V53.608C221.67 54.104 221.542 54.496 221.286 54.784C221.03 55.056 220.646 55.192 220.134 55.192ZM226.811 55.192C226.347 55.192 225.987 55.064 225.731 54.808C225.491 54.552 225.371 54.184 225.371 53.704V39.424C225.371 38.928 225.491 38.552 225.731 38.296C225.987 38.024 226.315 37.888 226.715 37.888C227.083 37.888 227.355 37.96 227.531 38.104C227.723 38.232 227.947 38.456 228.203 38.776L237.395 50.704H236.771V39.352C236.771 38.888 236.891 38.528 237.131 38.272C237.387 38.016 237.747 37.888 238.211 37.888C238.675 37.888 239.027 38.016 239.267 38.272C239.507 38.528 239.627 38.888 239.627 39.352V53.752C239.627 54.2 239.515 54.552 239.291 54.808C239.067 55.064 238.763 55.192 238.379 55.192C238.011 55.192 237.715 55.12 237.491 54.976C237.283 54.832 237.051 54.6 236.795 54.28L227.627 42.352H228.227V53.704C228.227 54.184 228.107 54.552 227.867 54.808C227.627 55.064 227.275 55.192 226.811 55.192ZM251.461 55.24C249.589 55.24 248.005 54.888 246.709 54.184C245.429 53.48 244.453 52.48 243.781 51.184C243.109 49.888 242.773 48.352 242.773 46.576C242.773 45.232 242.965 44.024 243.349 42.952C243.749 41.88 244.317 40.968 245.053 40.216C245.805 39.448 246.717 38.864 247.789 38.464C248.861 38.048 250.077 37.84 251.437 37.84C252.333 37.84 253.229 37.952 254.125 38.176C255.037 38.384 255.893 38.744 256.693 39.256C256.965 39.432 257.141 39.648 257.221 39.904C257.317 40.16 257.333 40.424 257.269 40.696C257.205 40.952 257.085 41.176 256.909 41.368C256.733 41.56 256.509 41.68 256.237 41.728C255.981 41.776 255.693 41.712 255.373 41.536C254.765 41.184 254.149 40.928 253.525 40.768C252.901 40.608 252.205 40.528 251.437 40.528C250.253 40.528 249.253 40.768 248.437 41.248C247.621 41.712 247.005 42.392 246.589 43.288C246.189 44.184 245.989 45.28 245.989 46.576C245.989 48.544 246.461 50.04 247.405 51.064C248.349 52.088 249.749 52.6 251.605 52.6C252.245 52.6 252.893 52.536 253.549 52.408C254.205 52.28 254.845 52.104 255.469 51.88L254.869 53.248V48.136H252.229C251.829 48.136 251.517 48.032 251.293 47.824C251.085 47.616 250.981 47.336 250.981 46.984C250.981 46.616 251.085 46.336 251.293 46.144C251.517 45.952 251.829 45.856 252.229 45.856H256.189C256.589 45.856 256.893 45.968 257.101 46.192C257.325 46.4 257.437 46.704 257.437 47.104V52.936C257.437 53.288 257.365 53.584 257.221 53.824C257.093 54.064 256.877 54.24 256.573 54.352C255.869 54.608 255.061 54.824 254.149 55C253.237 55.16 252.341 55.24 251.461 55.24ZM269.144 55C268.616 55 268.208 54.864 267.92 54.592C267.648 54.304 267.512 53.896 267.512 53.368V39.712C267.512 39.184 267.648 38.784 267.92 38.512C268.208 38.224 268.616 38.08 269.144 38.08H273.8C276.632 38.08 278.816 38.808 280.352 40.264C281.904 41.72 282.68 43.808 282.68 46.528C282.68 47.888 282.48 49.096 282.08 50.152C281.696 51.192 281.12 52.072 280.352 52.792C279.6 53.512 278.672 54.064 277.568 54.448C276.48 54.816 275.224 55 273.8 55H269.144ZM270.584 52.456H273.608C274.6 52.456 275.456 52.336 276.176 52.096C276.912 51.84 277.52 51.472 278 50.992C278.496 50.496 278.864 49.88 279.104 49.144C279.344 48.392 279.464 47.52 279.464 46.528C279.464 44.544 278.976 43.064 278 42.088C277.024 41.112 275.56 40.624 273.608 40.624H270.584V52.456ZM287.329 55.192C286.833 55.192 286.449 55.056 286.177 54.784C285.921 54.496 285.793 54.104 285.793 53.608V39.472C285.793 38.96 285.921 38.568 286.177 38.296C286.449 38.024 286.833 37.888 287.329 37.888C287.825 37.888 288.201 38.024 288.457 38.296C288.729 38.568 288.865 38.96 288.865 39.472V53.608C288.865 54.104 288.737 54.496 288.481 54.784C288.225 55.056 287.841 55.192 287.329 55.192ZM294.103 55.192C293.607 55.192 293.223 55.056 292.951 54.784C292.695 54.496 292.567 54.104 292.567 53.608V39.64C292.567 39.128 292.703 38.744 292.975 38.488C293.247 38.216 293.631 38.08 294.127 38.08H299.911C301.767 38.08 303.199 38.528 304.207 39.424C305.215 40.304 305.719 41.544 305.719 43.144C305.719 44.184 305.487 45.08 305.023 45.832C304.575 46.584 303.919 47.16 303.055 47.56C302.191 47.96 301.143 48.16 299.911 48.16L300.127 47.8H300.919C301.575 47.8 302.143 47.96 302.623 48.28C303.119 48.6 303.551 49.104 303.919 49.792L305.719 53.128C305.911 53.464 305.999 53.792 305.983 54.112C305.967 54.432 305.847 54.696 305.623 54.904C305.399 55.096 305.071 55.192 304.639 55.192C304.207 55.192 303.855 55.104 303.583 54.928C303.311 54.736 303.071 54.448 302.863 54.064L300.439 49.6C300.151 49.056 299.807 48.696 299.407 48.52C299.023 48.328 298.527 48.232 297.919 48.232H295.639V53.608C295.639 54.104 295.511 54.496 295.255 54.784C294.999 55.056 294.615 55.192 294.103 55.192ZM295.639 45.952H299.383C300.487 45.952 301.319 45.728 301.879 45.28C302.455 44.816 302.743 44.128 302.743 43.216C302.743 42.32 302.455 41.648 301.879 41.2C301.319 40.736 300.487 40.504 299.383 40.504H295.639V45.952ZM310.652 55C310.124 55 309.716 54.864 309.428 54.592C309.156 54.304 309.02 53.896 309.02 53.368V39.712C309.02 39.184 309.156 38.784 309.428 38.512C309.716 38.224 310.124 38.08 310.652 38.08H319.22C319.62 38.08 319.924 38.184 320.132 38.392C320.356 38.6 320.468 38.896 320.468 39.28C320.468 39.68 320.356 39.992 320.132 40.216C319.924 40.424 319.62 40.528 319.22 40.528H311.972V45.184H318.692C319.108 45.184 319.42 45.288 319.628 45.496C319.836 45.704 319.94 46.008 319.94 46.408C319.94 46.808 319.836 47.112 319.628 47.32C319.42 47.528 319.108 47.632 318.692 47.632H311.972V52.552H319.22C319.62 52.552 319.924 52.656 320.132 52.864C320.356 53.072 320.468 53.376 320.468 53.776C320.468 54.176 320.356 54.48 320.132 54.688C319.924 54.896 319.62 55 319.22 55H310.652ZM331.189 55.24C329.429 55.24 327.917 54.888 326.653 54.184C325.405 53.464 324.445 52.456 323.773 51.16C323.101 49.848 322.765 48.304 322.765 46.528C322.765 45.2 322.957 44.008 323.341 42.952C323.725 41.88 324.277 40.968 324.997 40.216C325.717 39.448 326.597 38.864 327.637 38.464C328.693 38.048 329.877 37.84 331.189 37.84C332.069 37.84 332.933 37.952 333.781 38.176C334.629 38.4 335.373 38.72 336.013 39.136C336.349 39.344 336.573 39.6 336.685 39.904C336.797 40.192 336.821 40.48 336.757 40.768C336.693 41.04 336.557 41.272 336.349 41.464C336.157 41.656 335.909 41.768 335.605 41.8C335.317 41.816 334.997 41.712 334.645 41.488C334.149 41.168 333.613 40.936 333.037 40.792C332.461 40.648 331.877 40.576 331.285 40.576C330.149 40.576 329.189 40.808 328.405 41.272C327.621 41.736 327.029 42.408 326.629 43.288C326.229 44.168 326.029 45.248 326.029 46.528C326.029 47.792 326.229 48.872 326.629 49.768C327.029 50.664 327.621 51.344 328.405 51.808C329.189 52.272 330.149 52.504 331.285 52.504C331.893 52.504 332.493 52.432 333.085 52.288C333.677 52.128 334.237 51.888 334.765 51.568C335.117 51.36 335.429 51.272 335.701 51.304C335.989 51.32 336.229 51.416 336.421 51.592C336.613 51.768 336.741 51.992 336.805 52.264C336.869 52.52 336.853 52.792 336.757 53.08C336.661 53.352 336.469 53.592 336.181 53.8C335.541 54.264 334.773 54.624 333.877 54.88C332.997 55.12 332.101 55.24 331.189 55.24ZM345.011 55.192C344.515 55.192 344.131 55.056 343.859 54.784C343.603 54.496 343.475 54.104 343.475 53.608V40.648H338.795C338.379 40.648 338.051 40.536 337.811 40.312C337.587 40.072 337.475 39.752 337.475 39.352C337.475 38.936 337.587 38.624 337.811 38.416C338.051 38.192 338.379 38.08 338.795 38.08H351.227C351.643 38.08 351.963 38.192 352.187 38.416C352.427 38.624 352.547 38.936 352.547 39.352C352.547 39.752 352.427 40.072 352.187 40.312C351.963 40.536 351.643 40.648 351.227 40.648H346.547V53.608C346.547 54.104 346.419 54.496 346.163 54.784C345.907 55.056 345.523 55.192 345.011 55.192ZM355.837 55.192C355.341 55.192 354.957 55.056 354.685 54.784C354.429 54.496 354.301 54.104 354.301 53.608V39.472C354.301 38.96 354.429 38.568 354.685 38.296C354.957 38.024 355.341 37.888 355.837 37.888C356.333 37.888 356.709 38.024 356.965 38.296C357.237 38.568 357.373 38.96 357.373 39.472V53.608C357.373 54.104 357.245 54.496 356.989 54.784C356.733 55.056 356.349 55.192 355.837 55.192ZM368.659 55.24C367.027 55.24 365.595 54.88 364.363 54.16C363.147 53.44 362.203 52.432 361.531 51.136C360.859 49.824 360.523 48.288 360.523 46.528C360.523 45.2 360.715 44.008 361.099 42.952C361.483 41.88 362.027 40.968 362.731 40.216C363.451 39.448 364.307 38.864 365.299 38.464C366.307 38.048 367.427 37.84 368.659 37.84C370.307 37.84 371.739 38.2 372.955 38.92C374.171 39.624 375.115 40.624 375.787 41.92C376.459 43.216 376.795 44.744 376.795 46.504C376.795 47.832 376.603 49.032 376.219 50.104C375.835 51.176 375.283 52.096 374.563 52.864C373.859 53.632 373.003 54.224 371.995 54.64C371.003 55.04 369.891 55.24 368.659 55.24ZM368.659 52.6C369.699 52.6 370.579 52.36 371.299 51.88C372.035 51.4 372.595 50.704 372.979 49.792C373.379 48.88 373.579 47.792 373.579 46.528C373.579 44.608 373.147 43.12 372.283 42.064C371.435 41.008 370.227 40.48 368.659 40.48C367.635 40.48 366.755 40.72 366.019 41.2C365.283 41.664 364.715 42.352 364.315 43.264C363.931 44.16 363.739 45.248 363.739 46.528C363.739 48.432 364.171 49.92 365.035 50.992C365.899 52.064 367.107 52.6 368.659 52.6ZM381.358 55.192C380.894 55.192 380.534 55.064 380.278 54.808C380.038 54.552 379.918 54.184 379.918 53.704V39.424C379.918 38.928 380.038 38.552 380.278 38.296C380.534 38.024 380.862 37.888 381.262 37.888C381.63 37.888 381.902 37.96 382.078 38.104C382.27 38.232 382.494 38.456 382.75 38.776L391.942 50.704H391.318V39.352C391.318 38.888 391.438 38.528 391.678 38.272C391.934 38.016 392.294 37.888 392.758 37.888C393.222 37.888 393.574 38.016 393.814 38.272C394.054 38.528 394.174 38.888 394.174 39.352V53.752C394.174 54.2 394.062 54.552 393.838 54.808C393.614 55.064 393.31 55.192 392.926 55.192C392.558 55.192 392.262 55.12 392.038 54.976C391.83 54.832 391.598 54.6 391.342 54.28L382.174 42.352H382.774V53.704C382.774 54.184 382.654 54.552 382.414 54.808C382.174 55.064 381.822 55.192 381.358 55.192ZM403.703 55.24C402.999 55.24 402.295 55.184 401.591 55.072C400.887 54.976 400.223 54.824 399.599 54.616C398.975 54.392 398.415 54.12 397.919 53.8C397.631 53.608 397.431 53.376 397.319 53.104C397.207 52.832 397.167 52.568 397.199 52.312C397.247 52.04 397.351 51.808 397.511 51.616C397.687 51.408 397.903 51.28 398.159 51.232C398.415 51.184 398.695 51.256 398.999 51.448C399.703 51.864 400.447 52.168 401.231 52.36C402.015 52.552 402.839 52.648 403.703 52.648C404.967 52.648 405.887 52.44 406.463 52.024C407.039 51.592 407.327 51.04 407.327 50.368C407.327 49.808 407.119 49.368 406.703 49.048C406.303 48.728 405.607 48.464 404.615 48.256L401.975 47.704C400.455 47.384 399.319 46.848 398.567 46.096C397.831 45.328 397.463 44.32 397.463 43.072C397.463 42.288 397.623 41.576 397.943 40.936C398.263 40.296 398.711 39.744 399.287 39.28C399.879 38.816 400.575 38.464 401.375 38.224C402.191 37.968 403.087 37.84 404.063 37.84C405.023 37.84 405.935 37.96 406.799 38.2C407.663 38.44 408.439 38.792 409.127 39.256C409.383 39.432 409.551 39.648 409.631 39.904C409.727 40.16 409.751 40.416 409.703 40.672C409.655 40.912 409.543 41.12 409.367 41.296C409.191 41.472 408.967 41.576 408.695 41.608C408.439 41.64 408.143 41.56 407.807 41.368C407.215 41.032 406.615 40.792 406.007 40.648C405.399 40.504 404.743 40.432 404.039 40.432C403.303 40.432 402.671 40.536 402.143 40.744C401.615 40.952 401.207 41.248 400.919 41.632C400.647 42 400.511 42.44 400.511 42.952C400.511 43.528 400.703 43.992 401.087 44.344C401.471 44.68 402.127 44.944 403.055 45.136L405.671 45.688C407.255 46.024 408.431 46.552 409.199 47.272C409.983 47.992 410.375 48.952 410.375 50.152C410.375 50.92 410.215 51.616 409.895 52.24C409.591 52.864 409.143 53.4 408.551 53.848C407.975 54.296 407.279 54.64 406.463 54.88C405.647 55.12 404.727 55.24 403.703 55.24Z" fill="#1E1E1E" fill-opacity="0.53"/>
<defs>
<filter id="filter0_d_52_71" x="68" y="15" width="390" height="74" filterUnits="userSpaceOnUse" color-interpolation-filters="sRGB">
<feFlood flood-opacity="0" result="BackgroundImageFix"/>
<feColorMatrix in="SourceAlpha" type="matrix" values="0 0 0 0 0 0 0 0 0 0 0 0 0 0 0 0 0 0 127 0" result="hardAlpha"/>
<feOffset dx="5" dy="5"/>
<feGaussianBlur stdDeviation="5"/>
<feComposite in2="hardAlpha" operator="out"/>
<feColorMatrix type="matrix" values="0 0 0 0 0 0 0 0 0 0 0 0 0 0 0 0 0 0 0.25 0"/>
<feBlend mode="normal" in2="BackgroundImageFix" result="effect1_dropShadow_52_71"/>
<feBlend mode="normal" in="SourceGraphic" in2="effect1_dropShadow_52_71" result="shape"/>
</filter>
</defs>
</svg>
