<svg width="220" height="66" viewBox="0 0 220 66" fill="none" xmlns="http://www.w3.org/2000/svg">
<g filter="url(#filter0_d_8_6)">
<path d="M66.062 19.855C66.062 22.8091 65.5005 25.458 64.3774 27.8018C63.2544 30.1211 61.6675 32.0986 59.6167 33.7344C57.5659 35.3457 55.1123 36.5908 52.2559 37.4697C49.3994 38.3242 46.25 38.7515 42.8076 38.7515C42.3926 38.7515 42.0264 38.6416 41.709 38.4219C41.416 38.1777 41.2695 37.8237 41.2695 37.3599C41.2695 36.9937 41.4038 36.6763 41.6724 36.4077C41.9409 36.1392 42.2705 36.0049 42.6611 36.0049C45.7373 36.0049 48.5449 35.6509 51.084 34.9429C53.623 34.2349 55.7959 33.1973 57.6025 31.8301C59.4092 30.4385 60.813 28.7417 61.814 26.7397C62.8149 24.7378 63.3154 22.4429 63.3154 19.855C63.3154 17.2183 62.7295 14.8745 61.5576 12.8237C60.4102 10.7729 58.7866 9.03955 56.687 7.62354C54.6118 6.20752 52.1216 5.1333 49.2163 4.40088C46.3354 3.66846 43.1616 3.30225 39.6948 3.30225C36.4233 3.30225 33.2495 3.5708 30.1733 4.10791C27.1216 4.64502 24.2529 5.40186 21.5674 6.37842C18.8818 7.35498 16.4282 8.52686 14.2065 9.89404C12.0093 11.2612 10.1172 12.7627 8.53027 14.3984C6.96777 16.0342 5.74707 17.792 4.86816 19.6719C3.98926 21.5273 3.5498 23.4561 3.5498 25.458C3.5498 27.2158 3.85498 28.7539 4.46533 30.0723C5.07568 31.3906 5.88135 32.5015 6.88232 33.4048C7.90771 34.2837 9.07959 34.9429 10.3979 35.3823C11.7163 35.8218 13.0957 36.0415 14.5361 36.0415C16.2451 36.0415 17.7588 35.8584 19.0771 35.4922C20.4199 35.126 21.543 34.7231 22.4463 34.2837C23.374 33.8442 24.082 33.4414 24.5703 33.0752C25.0586 32.6846 25.3271 32.4648 25.376 32.416C25.6445 32.1475 25.9619 32.0132 26.3281 32.0132C26.6943 32.0132 27.0117 32.1597 27.2803 32.4526C27.5732 32.7212 27.7197 33.0386 27.7197 33.4048C27.7197 33.8198 27.5732 34.1494 27.2803 34.3936C27.2314 34.4424 26.9141 34.6987 26.3281 35.1626C25.7666 35.6265 24.9365 36.1392 23.8379 36.7007C22.7637 37.2378 21.4453 37.7261 19.8828 38.1655C18.3203 38.605 16.5381 38.8247 14.5361 38.8247C12.7051 38.8247 10.9473 38.5195 9.2627 37.9092C7.60254 37.2988 6.1377 36.4199 4.86816 35.2725C3.62305 34.1006 2.62207 32.6968 1.86523 31.061C1.13281 29.4009 0.766602 27.5332 0.766602 25.458C0.766602 23.1875 1.23047 21.0024 2.1582 18.9028C3.11035 16.7788 4.42871 14.8013 6.11328 12.9702C7.82227 11.1147 9.86084 9.43018 12.229 7.9165C14.5972 6.37842 17.2217 5.07227 20.1025 3.99805C22.9834 2.89941 26.0718 2.05713 29.3677 1.47119C32.6636 0.86084 36.0815 0.555664 39.6216 0.555664C43.5034 0.555664 47.0679 0.995117 50.3149 1.87402C53.562 2.75293 56.3452 4.02246 58.6646 5.68262C61.0083 7.34277 62.8271 9.36914 64.1211 11.7617C65.415 14.1299 66.062 16.8276 66.062 19.855ZM44.3091 11.1392C44.6753 11.1392 44.9927 11.2734 45.2612 11.542C45.5542 11.7861 45.7007 12.1157 45.7007 12.5308C45.7007 12.7749 45.6274 12.9946 45.481 13.1899C45.3589 13.3853 45.2002 13.5684 45.0049 13.7393C43.6377 14.8135 42.5391 15.9731 41.709 17.2183C40.9033 18.4634 40.2808 19.8062 39.8413 21.2466C39.4263 22.6626 39.1455 24.1763 38.999 25.7876C38.877 27.3989 38.8159 29.0835 38.8159 30.8413V35.4556C38.8159 38.4829 38.5474 41.3638 38.0103 44.0981C37.4731 46.8081 36.5576 49.1885 35.2637 51.2393C33.9941 53.29 32.2852 54.9136 30.1367 56.1099C27.9883 57.3306 25.2905 57.9409 22.0435 57.9409C20.5786 57.9409 19.1382 57.7578 17.7222 57.3916C16.3306 57.0498 15.0122 56.5493 13.7671 55.8901C12.522 55.2065 11.3745 54.3765 10.3247 53.3999C9.2749 52.4233 8.37158 51.3247 7.61475 50.104C7.56592 50.0063 7.51709 49.8965 7.46826 49.7744C7.41943 49.6279 7.39502 49.4937 7.39502 49.3716C7.39502 49.0298 7.51709 48.7246 7.76123 48.4561C8.02979 48.1631 8.37158 48.0166 8.78662 48.0166C9.03076 48.0166 9.25049 48.0898 9.4458 48.2363C9.66553 48.3584 9.84863 48.5171 9.99512 48.7124C11.5576 50.8853 13.3276 52.521 15.3052 53.6196C17.2827 54.6938 19.5288 55.231 22.0435 55.231C24.9243 55.231 27.2681 54.7061 29.0747 53.6562C30.9058 52.582 32.334 51.1294 33.3594 49.2983C34.4092 47.4429 35.1172 45.2822 35.4834 42.8164C35.874 40.3506 36.0693 37.7261 36.0693 34.9429V30.292C36.0693 28.6562 36.1426 26.9717 36.2891 25.2383C36.4355 23.4805 36.7651 21.7715 37.2778 20.1113C37.8149 18.4268 38.5718 16.8398 39.5483 15.3506C40.5493 13.8369 41.8921 12.5063 43.5767 11.3589C43.6743 11.3101 43.7964 11.2612 43.9429 11.2124C44.0894 11.1636 44.2114 11.1392 44.3091 11.1392ZM90.6714 45.7827C90.5737 45.978 90.3662 46.3931 90.0488 47.0278C89.7559 47.6382 89.3652 48.3462 88.877 49.1519C88.4131 49.9575 87.8638 50.7998 87.229 51.6787C86.5942 52.5576 85.8862 53.3633 85.105 54.0957C84.3237 54.8281 83.4814 55.4385 82.5781 55.9268C81.6748 56.3906 80.7227 56.6226 79.7217 56.6226C78.3057 56.6226 77.1094 56.1709 76.1328 55.2676C75.1807 54.3643 74.4849 53.229 74.0454 51.8618C73.2153 53.2534 72.2266 54.3643 71.0791 55.1943C69.9316 56 68.7842 56.4028 67.6367 56.4028C66.7334 56.4028 65.9155 56.2441 65.1831 55.9268C64.4507 55.585 63.8281 55.1211 63.3154 54.5352C62.8027 53.9248 62.3999 53.2168 62.1069 52.4111C61.8384 51.6055 61.7041 50.7266 61.7041 49.7744C61.7041 47.8701 62.0215 46.1978 62.6562 44.7573C63.3154 43.2925 64.1455 42.0718 65.1465 41.0952C66.1475 40.1187 67.2461 39.3862 68.4424 38.8979C69.6631 38.4097 70.835 38.1655 71.958 38.1655C72.7148 38.1655 73.4106 38.2754 74.0454 38.4951C74.6802 38.6904 75.2173 38.9102 75.6567 39.1543C76.1206 39.3984 76.4746 39.6304 76.7188 39.8501C76.9629 40.0454 77.0972 40.1553 77.1216 40.1797C77.3901 40.4971 77.5244 40.8267 77.5244 41.1685C77.5244 41.5347 77.3901 41.8643 77.1216 42.1572C76.853 42.4258 76.5356 42.5601 76.1694 42.5601C75.7788 42.5601 75.4492 42.4258 75.1807 42.1572C75.1318 42.1084 75.022 42.0229 74.8511 41.9009C74.6802 41.7544 74.4482 41.6079 74.1553 41.4614C73.8623 41.3149 73.5083 41.1929 73.0933 41.0952C72.7026 40.9731 72.251 40.9121 71.7383 40.9121C70.9814 40.9121 70.1758 41.083 69.3213 41.4248C68.4668 41.7666 67.6855 42.3037 66.9775 43.0361C66.2695 43.7441 65.6714 44.6475 65.1831 45.7461C64.7192 46.8203 64.4873 48.1021 64.4873 49.5913C64.4873 50.0552 64.5361 50.5312 64.6338 51.0195C64.7314 51.4834 64.9023 51.9106 65.1465 52.3013C65.3906 52.6919 65.7202 53.0093 66.1353 53.2534C66.5503 53.4976 67.063 53.6196 67.6733 53.6196C68.1128 53.6196 68.6133 53.4731 69.1748 53.1802C69.7607 52.8872 70.3101 52.4355 70.8228 51.8252C71.3599 51.2148 71.8359 50.4458 72.251 49.5181C72.6904 48.5903 72.9956 47.4917 73.1665 46.2222C73.2153 45.8804 73.374 45.5996 73.6426 45.3799C73.9111 45.1357 74.2285 45.0137 74.5947 45.0137C74.9365 45.0137 75.2295 45.1479 75.4736 45.4165C75.7422 45.6851 75.8887 45.9902 75.9131 46.332C75.9375 46.7959 75.9863 47.4551 76.0596 48.3096C76.1328 49.1396 76.2915 49.9697 76.5356 50.7998C76.8042 51.6299 77.1948 52.3501 77.7075 52.9604C78.2202 53.5708 78.9282 53.876 79.8315 53.876C80.4175 53.876 80.9912 53.7173 81.5527 53.3999C82.1387 53.0825 82.7002 52.6675 83.2373 52.1548C83.7988 51.6177 84.3237 51.0195 84.812 50.3604C85.3247 49.6768 85.7886 48.9932 86.2036 48.3096C86.6187 47.626 86.9849 46.9668 87.3022 46.332C87.6196 45.6973 87.8882 45.1479 88.1079 44.6841C88.23 44.4155 88.4009 44.208 88.6206 44.0615C88.8647 43.915 89.1211 43.8418 89.3896 43.8418C89.8047 43.8418 90.1343 44.0005 90.3784 44.3179C90.647 44.6108 90.7812 44.9282 90.7812 45.27C90.7812 45.4409 90.7446 45.6118 90.6714 45.7827ZM92.2095 42.4502C92.063 42.8408 91.8799 43.2803 91.6602 43.7686C91.4648 44.2568 91.2329 44.7695 90.9644 45.3066C90.7446 45.7217 90.5127 46.0513 90.2686 46.2954C90.0488 46.5151 89.7559 46.625 89.3896 46.625C88.9746 46.625 88.645 46.5029 88.4009 46.2588C88.1567 45.9902 88.0347 45.6851 88.0347 45.3433C88.0347 45.2212 88.0469 45.1235 88.0713 45.0503C88.0957 44.9526 88.1567 44.8062 88.2544 44.6108C88.8892 43.3901 89.353 42.3281 89.646 41.4248C89.9634 40.4971 90.2197 39.5327 90.415 38.5317C90.2441 37.9702 90.1221 37.4941 90.0488 37.1035C89.9756 36.7129 89.939 36.3101 89.939 35.895C89.939 35.0894 90.1099 34.4424 90.4517 33.9541C90.7935 33.4414 91.2695 33.1851 91.8799 33.1851C92.4414 33.1851 92.8809 33.4292 93.1982 33.9175C93.54 34.4058 93.7109 35.0039 93.7109 35.7119C93.7109 36.1025 93.6743 36.4932 93.6011 36.8838C93.5278 37.2744 93.4302 37.7627 93.3081 38.3486C93.8696 39.7402 94.4312 40.9731 94.9927 42.0474C95.5542 43.1216 96.0547 44.1104 96.4941 45.0137C96.9336 45.8926 97.2876 46.7227 97.5562 47.5039C97.8491 48.2852 97.9956 49.0664 97.9956 49.8477C97.9956 50.873 97.7881 51.8496 97.373 52.7773C96.958 53.7051 96.2744 54.4863 95.3223 55.1211C95.4443 55.1455 95.5664 55.1577 95.6885 55.1577C95.8105 55.1577 95.9326 55.1577 96.0547 55.1577C97.4463 55.1577 98.728 54.8403 99.8999 54.2056C101.072 53.5708 102.122 52.7529 103.049 51.752C104.001 50.7266 104.844 49.6035 105.576 48.3828C106.309 47.1377 106.943 45.9048 107.48 44.6841C107.725 44.1226 108.066 43.8418 108.506 43.8418C108.921 43.8418 109.238 43.9883 109.458 44.2812C109.702 44.5742 109.824 44.8916 109.824 45.2334C109.824 45.4287 109.788 45.6118 109.714 45.7827C109.446 46.4419 109.092 47.1987 108.652 48.0532C108.237 48.8833 107.725 49.75 107.114 50.6533C106.528 51.5322 105.845 52.3989 105.063 53.2534C104.282 54.1079 103.403 54.877 102.427 55.5605C101.475 56.2197 100.425 56.7446 99.2773 57.1353C98.1299 57.5503 96.8726 57.7578 95.5054 57.7578C93.8696 57.7578 92.3438 57.4648 90.9277 56.8789C89.5361 56.3174 88.4009 55.3774 87.522 54.0591C87.3755 53.8394 87.3022 53.6074 87.3022 53.3633C87.3022 52.9971 87.4365 52.6797 87.7051 52.4111C87.998 52.1182 88.3276 51.9717 88.6938 51.9717C89.0845 51.9717 89.4141 52.106 89.6826 52.3745C89.707 52.4233 89.7925 52.5088 89.939 52.6309C90.0854 52.7285 90.2563 52.8506 90.4517 52.9971C90.6714 53.1191 90.9155 53.229 91.1841 53.3267C91.4771 53.4243 91.77 53.4731 92.063 53.4731C92.6489 53.4731 93.1372 53.3511 93.5278 53.1069C93.9429 52.8628 94.2725 52.5698 94.5166 52.228C94.7607 51.8618 94.9316 51.4834 95.0293 51.0928C95.1514 50.6777 95.2124 50.3237 95.2124 50.0308C95.2124 49.4204 95.1147 48.8101 94.9194 48.1997C94.7241 47.5894 94.4678 46.979 94.1504 46.3687C93.8574 45.7583 93.5278 45.1357 93.1616 44.501C92.8198 43.8418 92.5024 43.1582 92.2095 42.4502ZM136.851 19.3423C136.851 19.7329 136.716 20.0503 136.448 20.2944C136.179 20.5142 135.85 20.624 135.459 20.624H116.892V21.0269C116.892 22.5161 116.782 24.103 116.562 25.7876C116.343 27.4722 116.038 29.1567 115.647 30.8413C115.281 32.5015 114.854 34.125 114.365 35.7119C113.901 37.2988 113.413 38.7637 112.9 40.1064C112.412 41.4492 111.924 42.6211 111.436 43.6221C110.947 44.5986 110.508 45.3311 110.117 45.8193C110.435 46.9424 110.813 47.9922 111.252 48.9688C111.692 49.9209 112.18 50.7632 112.717 51.4956C113.279 52.2036 113.877 52.7651 114.512 53.1802C115.146 53.5952 115.83 53.8027 116.562 53.8027C117.417 53.8027 118.259 53.4487 119.089 52.7407C119.944 52.0083 120.725 51.1538 121.433 50.1772C122.166 49.1763 122.8 48.1753 123.337 47.1743C123.899 46.1489 124.302 45.3311 124.546 44.7207C124.79 44.1348 125.217 43.8418 125.828 43.8418C126.243 43.8418 126.572 43.9883 126.816 44.2812C127.085 44.5742 127.219 44.8916 127.219 45.2334C127.219 45.4043 127.183 45.5752 127.109 45.7461C127.036 45.917 126.853 46.3076 126.56 46.918C126.292 47.5283 125.925 48.2363 125.461 49.042C125.022 49.8477 124.497 50.7021 123.887 51.6055C123.301 52.4844 122.629 53.29 121.873 54.0225C121.14 54.7549 120.347 55.3652 119.492 55.8535C118.638 56.3418 117.734 56.5859 116.782 56.5859C115.098 56.5859 113.584 56.0366 112.241 54.938C110.898 53.8394 109.751 52.3013 108.799 50.3237C107.871 48.3462 107.163 46.0024 106.675 43.2925C106.187 40.5825 105.942 37.6162 105.942 34.3936C105.942 33.5879 105.955 32.6479 105.979 31.5737C106.003 30.4751 106.052 29.3276 106.125 28.1313C106.199 26.9106 106.309 25.6655 106.455 24.396C106.602 23.1021 106.797 21.8447 107.041 20.624H93.894C93.5034 20.624 93.1738 20.5142 92.9053 20.2944C92.6367 20.0503 92.5024 19.7329 92.5024 19.3423C92.5024 18.9517 92.6367 18.6465 92.9053 18.4268C93.1738 18.1826 93.5034 18.0605 93.894 18.0605H107.664C107.908 17.1816 108.188 16.376 108.506 15.6436C108.848 14.9111 109.226 14.2764 109.641 13.7393C110.081 13.2021 110.557 12.7871 111.069 12.4941C111.606 12.1768 112.192 12.0181 112.827 12.0181C113.438 12.0181 113.962 12.1768 114.402 12.4941C114.866 12.7871 115.256 13.2021 115.574 13.7393C115.891 14.2764 116.135 14.9111 116.306 15.6436C116.501 16.376 116.648 17.1816 116.746 18.0605H135.459C135.85 18.0605 136.179 18.1826 136.448 18.4268C136.716 18.6465 136.851 18.9517 136.851 19.3423ZM109.275 42.1572C110.007 40.5459 110.667 38.8125 111.252 36.957C111.863 35.0771 112.375 33.1851 112.791 31.2808C113.23 29.3765 113.56 27.5088 113.779 25.6777C114.023 23.8467 114.146 22.1621 114.146 20.624H109.824C109.482 22.1377 109.202 24.0176 108.982 26.2637C108.787 28.4854 108.689 31.1953 108.689 34.3936C108.689 36.1758 108.738 37.6772 108.835 38.8979C108.933 40.0942 109.08 41.1807 109.275 42.1572ZM112.681 14.7646C112.461 14.7646 112.144 15.0088 111.729 15.4971C111.313 15.9609 110.898 16.8154 110.483 18.0605H113.999C113.877 17.0352 113.694 16.2295 113.45 15.6436C113.23 15.0576 112.974 14.7646 112.681 14.7646ZM109.861 44.7939V44.8306V44.7939ZM130.662 27.2524C130.662 28.1802 130.332 28.9736 129.673 29.6328C129.038 30.2676 128.257 30.585 127.329 30.585C126.401 30.585 125.608 30.2676 124.949 29.6328C124.314 28.9736 123.997 28.1802 123.997 27.2524C123.997 26.7886 124.082 26.3613 124.253 25.9707C124.424 25.5557 124.656 25.2017 124.949 24.9087C125.266 24.5913 125.62 24.3472 126.011 24.1763C126.426 24.0054 126.865 23.9199 127.329 23.9199C127.793 23.9199 128.22 24.0054 128.611 24.1763C129.026 24.3472 129.38 24.5913 129.673 24.9087C129.99 25.2017 130.234 25.5557 130.405 25.9707C130.576 26.3613 130.662 26.7886 130.662 27.2524ZM124.729 48.7124C124.729 45.1968 124.949 41.6934 125.388 38.2021C125.437 37.8604 125.583 37.5674 125.828 37.3232C126.096 37.0547 126.438 36.9204 126.853 36.9204C127.219 36.9204 127.524 37.0669 127.769 37.3599C128.013 37.6284 128.135 37.9458 128.135 38.312C128.135 38.4585 128.098 38.8979 128.025 39.6304C127.976 40.3628 127.903 41.2417 127.805 42.2671C127.732 43.2681 127.659 44.3423 127.585 45.4897C127.537 46.6128 127.512 47.6504 127.512 48.6025C127.512 49.8965 127.634 50.9463 127.878 51.752C128.147 52.5332 128.477 53.1436 128.867 53.583C129.282 54.0225 129.709 54.3154 130.149 54.4619C130.613 54.6084 131.052 54.6816 131.467 54.6816C132.151 54.6816 132.859 54.4375 133.591 53.9492C134.324 53.4609 135.068 52.7773 135.825 51.8984C136.606 51.0195 137.388 49.9697 138.169 48.749C138.95 47.5039 139.719 46.1245 140.476 44.6108C140.598 44.3667 140.769 44.1836 140.989 44.0615C141.208 43.915 141.453 43.8418 141.721 43.8418C142.112 43.8418 142.429 43.9883 142.673 44.2812C142.942 44.5742 143.076 44.8916 143.076 45.2334C143.076 45.4775 143.027 45.6851 142.93 45.856C142.637 46.4175 142.271 47.1011 141.831 47.9067C141.392 48.7124 140.891 49.5425 140.33 50.397C139.768 51.2515 139.146 52.106 138.462 52.9604C137.803 53.7905 137.095 54.5474 136.338 55.231C135.581 55.8901 134.788 56.4272 133.958 56.8423C133.127 57.2573 132.285 57.4648 131.431 57.4648C130.332 57.4648 129.368 57.2329 128.538 56.769C127.708 56.3052 127 55.6826 126.414 54.9014C125.852 54.1201 125.425 53.2046 125.132 52.1548C124.863 51.0806 124.729 49.9331 124.729 48.7124ZM128.611 27.2524C128.611 26.9106 128.477 26.6177 128.208 26.3735C127.964 26.105 127.671 25.9707 127.329 25.9707C126.987 25.9707 126.694 26.105 126.45 26.3735C126.206 26.6177 126.084 26.9106 126.084 27.2524C126.084 27.5942 126.206 27.8872 126.45 28.1313C126.694 28.3755 126.987 28.4976 127.329 28.4976C127.671 28.4976 127.964 28.3755 128.208 28.1313C128.477 27.8872 128.611 27.5942 128.611 27.2524ZM164.39 45.856C164.243 46.1245 163.987 46.6128 163.621 47.3208C163.279 48.0288 162.803 48.8345 162.192 49.7378C161.606 50.6167 160.898 51.5322 160.068 52.4844C159.238 53.4365 158.286 54.3154 157.212 55.1211C156.138 55.9023 154.929 56.5493 153.586 57.062C152.268 57.5747 150.828 57.8311 149.265 57.8311C147.874 57.8311 146.641 57.5747 145.566 57.062C144.492 56.5737 143.577 55.8779 142.82 54.9746C142.063 54.0469 141.489 52.9604 141.099 51.7153C140.708 50.4702 140.513 49.0908 140.513 47.5771C140.513 46.1123 140.72 44.7451 141.135 43.4756C141.55 42.1816 142.112 41.0586 142.82 40.1064C143.552 39.1543 144.395 38.4097 145.347 37.8726C146.299 37.311 147.312 37.0303 148.386 37.0303C149.192 37.0303 149.924 37.1768 150.583 37.4697C151.243 37.7383 151.792 38.1045 152.231 38.5684C152.695 39.0322 153.049 39.5449 153.293 40.1064C153.562 40.668 153.696 41.2295 153.696 41.791C153.696 42.3281 153.623 42.8286 153.477 43.2925C153.354 43.7563 153.184 44.1714 152.964 44.5376C152.769 44.8794 152.537 45.1602 152.268 45.3799C152 45.5752 151.731 45.6729 151.462 45.6729C151.047 45.6729 150.706 45.5386 150.437 45.27C150.193 45.0015 150.071 44.6719 150.071 44.2812C150.071 44.0859 150.107 43.915 150.181 43.7686C150.278 43.6221 150.376 43.4756 150.474 43.3291C150.596 43.1582 150.693 42.9629 150.767 42.7432C150.864 42.499 150.913 42.1938 150.913 41.8276C150.913 41.3149 150.669 40.8511 150.181 40.436C149.717 40.021 149.119 39.8135 148.386 39.8135C147.703 39.8135 147.043 40.021 146.409 40.436C145.798 40.8511 145.261 41.4126 144.797 42.1206C144.333 42.8042 143.955 43.6221 143.662 44.5742C143.394 45.502 143.259 46.4907 143.259 47.5405C143.259 48.5415 143.381 49.4937 143.625 50.397C143.87 51.3003 144.236 52.106 144.724 52.814C145.212 53.4976 145.823 54.0469 146.555 54.4619C147.312 54.877 148.203 55.0845 149.229 55.0845C150.547 55.0845 151.768 54.8525 152.891 54.3887C154.014 53.9004 155.039 53.29 155.967 52.5576C156.895 51.8252 157.712 51.0317 158.42 50.1772C159.128 49.2983 159.727 48.4805 160.215 47.7236C160.728 46.9424 161.118 46.271 161.387 45.7095C161.68 45.1235 161.851 44.7573 161.899 44.6108C161.997 44.3667 162.156 44.1836 162.375 44.0615C162.62 43.915 162.876 43.8418 163.145 43.8418C163.56 43.8418 163.889 43.9883 164.133 44.2812C164.402 44.5742 164.536 44.9038 164.536 45.27C164.536 45.4165 164.487 45.6118 164.39 45.856ZM164.792 52.8872C165.183 52.0571 165.635 51.166 166.147 50.2139C166.66 49.2373 167.209 48.2485 167.795 47.2476C168.381 46.2222 169.004 45.209 169.663 44.208C170.322 43.207 171.006 42.2671 171.714 41.3882C172.422 40.5337 173.13 39.9233 173.838 39.5571C174.57 39.1665 175.254 38.9712 175.889 38.9712C176.523 38.9712 177.073 39.1055 177.537 39.374C178.025 39.6182 178.416 39.96 178.708 40.3994C179.026 40.8389 179.258 41.3516 179.404 41.9375C179.575 42.5234 179.661 43.1582 179.661 43.8418C179.661 44.4033 179.6 45.1602 179.478 46.1123C179.38 47.04 179.331 48.0166 179.331 49.042C179.331 49.6279 179.355 50.2139 179.404 50.7998C179.478 51.3613 179.587 51.874 179.734 52.3379C179.905 52.7773 180.149 53.1436 180.466 53.4365C180.784 53.7051 181.199 53.8394 181.711 53.8394C182.297 53.8394 182.883 53.6807 183.469 53.3633C184.055 53.0215 184.629 52.582 185.19 52.0449C185.752 51.4834 186.289 50.873 186.802 50.2139C187.314 49.5303 187.778 48.8589 188.193 48.1997C188.608 47.5161 188.975 46.8691 189.292 46.2588C189.609 45.624 189.866 45.0991 190.061 44.6841C190.305 44.1226 190.732 43.8418 191.343 43.8418C191.758 43.8418 192.087 43.9883 192.332 44.2812C192.576 44.5742 192.698 44.8916 192.698 45.2334C192.698 45.4287 192.661 45.6118 192.588 45.7827C192.49 45.978 192.295 46.3809 192.002 46.9912C191.733 47.6016 191.355 48.3096 190.867 49.1152C190.403 49.9209 189.854 50.7632 189.219 51.6421C188.584 52.521 187.876 53.3389 187.095 54.0957C186.338 54.8281 185.508 55.4385 184.604 55.9268C183.726 56.3906 182.798 56.6226 181.821 56.6226C180.698 56.6226 179.795 56.3906 179.111 55.9268C178.428 55.4385 177.891 54.8281 177.5 54.0957C177.134 53.3633 176.877 52.5454 176.731 51.6421C176.609 50.7388 176.548 49.8599 176.548 49.0054C176.548 48.5659 176.56 48.1021 176.584 47.6138C176.633 47.1011 176.682 46.6006 176.731 46.1123C176.78 45.624 176.816 45.1724 176.841 44.7573C176.89 44.3179 176.914 43.9517 176.914 43.6587C176.914 42.9019 176.804 42.3892 176.584 42.1206C176.389 41.8521 176.157 41.7178 175.889 41.7178C175.498 41.7178 175.046 41.9497 174.534 42.4136C174.045 42.853 173.521 43.439 172.959 44.1714C172.422 44.9038 171.873 45.7339 171.311 46.6616C170.774 47.5649 170.249 48.4683 169.736 49.3716C169.224 50.2749 168.76 51.1416 168.345 51.9717C167.93 52.7773 167.588 53.4487 167.319 53.9858C166.807 55.0112 166.282 55.6948 165.745 56.0366C165.232 56.4028 164.768 56.5859 164.353 56.5859C163.596 56.5859 163.01 56.293 162.595 55.707C162.205 55.0967 162.009 54.3643 162.009 53.5098V51.2026C162.009 46.5884 162.009 42.1938 162.009 38.019C162.034 33.8198 162.095 29.9258 162.192 26.3369C162.314 22.7236 162.498 19.4644 162.742 16.5591C163.01 13.6294 163.401 11.1392 163.914 9.08838C164.426 7.01318 165.073 5.41406 165.854 4.29102C166.66 3.16797 167.661 2.60645 168.857 2.60645C169.883 2.60645 170.75 2.88721 171.458 3.44873C172.166 4.01025 172.739 4.7793 173.179 5.75586C173.618 6.70801 173.936 7.83105 174.131 9.125C174.326 10.3945 174.424 11.7373 174.424 13.1533C174.424 16.0342 174.155 18.8662 173.618 21.6494C173.105 24.4082 172.41 27.106 171.531 29.7427C170.652 32.3794 169.626 34.9551 168.455 37.4697C167.283 39.96 166.05 42.3892 164.756 44.7573C164.756 45.1968 164.756 45.7217 164.756 46.332C164.756 46.9424 164.756 47.5527 164.756 48.1631C164.756 48.7734 164.756 49.3472 164.756 49.8843C164.756 50.4214 164.756 50.8486 164.756 51.166L164.792 52.8872ZM164.792 39.374C165.818 37.1279 166.746 34.9429 167.576 32.8188C168.43 30.6704 169.15 28.5342 169.736 26.4102C170.347 24.2861 170.823 22.1377 171.165 19.9648C171.506 17.7676 171.677 15.4849 171.677 13.1167C171.677 12.7261 171.653 12.1035 171.604 11.249C171.58 10.3945 171.47 9.52783 171.274 8.64893C171.104 7.77002 170.823 7.00098 170.432 6.3418C170.066 5.68262 169.541 5.35303 168.857 5.35303C168.32 5.35303 167.856 5.71924 167.466 6.45166C167.075 7.15967 166.733 8.13623 166.44 9.38135C166.147 10.6021 165.903 12.0303 165.708 13.666C165.513 15.3018 165.354 17.0352 165.232 18.8662C165.11 20.6973 165.012 22.5771 164.939 24.5059C164.89 26.4346 164.854 28.3145 164.829 30.1455C164.805 31.9521 164.792 33.6489 164.792 35.2358C164.792 36.8228 164.792 38.2021 164.792 39.374ZM194.492 51.9717C195.005 52.6797 195.664 53.2534 196.47 53.6929C197.275 54.1079 198.264 54.3154 199.436 54.3154C200.632 54.3154 201.719 54.0347 202.695 53.4731C203.672 52.8872 204.563 52.1304 205.369 51.2026C206.174 50.2749 206.895 49.2373 207.529 48.0898C208.164 46.9424 208.738 45.7949 209.25 44.6475C209.373 44.3789 209.543 44.1836 209.763 44.0615C209.983 43.915 210.227 43.8418 210.496 43.8418C210.911 43.8418 211.24 43.9883 211.484 44.2812C211.753 44.5742 211.887 44.8916 211.887 45.2334C211.887 45.3555 211.875 45.4653 211.851 45.563C211.826 45.6362 211.79 45.7217 211.741 45.8193C210.056 49.5303 208.213 52.3257 206.211 54.2056C204.233 56.0854 201.987 57.0498 199.473 57.0986C197.861 57.0986 196.47 56.7812 195.298 56.1465C194.126 55.5361 193.162 54.7427 192.405 53.7661C191.648 52.7651 191.086 51.6421 190.72 50.397C190.354 49.1519 190.171 47.9067 190.171 46.6616C190.171 45.4165 190.317 44.269 190.61 43.2192C190.928 42.1694 191.367 41.2539 191.929 40.4727C192.515 39.6914 193.198 39.0811 193.979 38.6416C194.785 38.2021 195.664 37.9824 196.616 37.9824C197.178 37.9824 197.727 38.1045 198.264 38.3486C198.826 38.5684 199.326 38.8979 199.766 39.3374C200.205 39.7524 200.559 40.2651 200.828 40.8755C201.096 41.4858 201.23 42.1816 201.23 42.9629C201.23 43.9639 201.06 44.9038 200.718 45.7827C200.376 46.6616 199.9 47.4795 199.29 48.2363C198.704 48.9932 197.996 49.689 197.166 50.3237C196.335 50.9585 195.444 51.5078 194.492 51.9717ZM193.394 49.5913C194.15 49.2739 194.834 48.8711 195.444 48.3828C196.079 47.8945 196.616 47.3574 197.056 46.7715C197.495 46.1855 197.837 45.5752 198.081 44.9404C198.325 44.2812 198.447 43.6221 198.447 42.9629C198.447 42.2305 198.264 41.6812 197.898 41.3149C197.532 40.9243 197.104 40.729 196.616 40.729C195.957 40.729 195.396 40.9121 194.932 41.2783C194.468 41.6445 194.089 42.1206 193.796 42.7065C193.503 43.2925 193.284 43.9517 193.137 44.6841C193.015 45.3921 192.954 46.1001 192.954 46.8081C192.954 47.2476 192.991 47.7114 193.064 48.1997C193.162 48.688 193.271 49.1519 193.394 49.5913Z" fill="white"/>
</g>
<defs>
<filter id="filter0_d_8_6" x="0.766602" y="0.555664" width="219.121" height="65.3853" filterUnits="userSpaceOnUse" color-interpolation-filters="sRGB">
<feFlood flood-opacity="0" result="BackgroundImageFix"/>
<feColorMatrix in="SourceAlpha" type="matrix" values="0 0 0 0 0 0 0 0 0 0 0 0 0 0 0 0 0 0 127 0" result="hardAlpha"/>
<feOffset dx="4" dy="4"/>
<feGaussianBlur stdDeviation="2"/>
<feComposite in2="hardAlpha" operator="out"/>
<feColorMatrix type="matrix" values="0 0 0 0 0 0 0 0 0 0 0 0 0 0 0 0 0 0 0.46 0"/>
<feBlend mode="normal" in2="BackgroundImageFix" result="effect1_dropShadow_8_6"/>
<feBlend mode="normal" in="SourceGraphic" in2="effect1_dropShadow_8_6" result="shape"/>
</filter>
</defs>
</svg>
