<svg width="516" height="94" viewBox="0 0 516 94" fill="none" xmlns="http://www.w3.org/2000/svg">
<g filter="url(#filter0_d_50_70)">
<rect x="133" y="20" width="250" height="54" rx="10" fill="#EEE0C9"/>
</g>
<path d="M190.17 55.24C188.538 55.24 187.106 54.88 185.874 54.16C184.658 53.44 183.714 52.432 183.042 51.136C182.37 49.824 182.034 48.288 182.034 46.528C182.034 45.2 182.226 44.008 182.61 42.952C182.994 41.88 183.538 40.968 184.242 40.216C184.962 39.448 185.818 38.864 186.81 38.464C187.818 38.048 188.938 37.84 190.17 37.84C191.818 37.84 193.25 38.2 194.466 38.92C195.682 39.624 196.626 40.624 197.298 41.92C197.97 43.216 198.306 44.744 198.306 46.504C198.306 47.832 198.114 49.032 197.73 50.104C197.346 51.176 196.794 52.096 196.074 52.864C195.37 53.632 194.514 54.224 193.506 54.64C192.514 55.04 191.402 55.24 190.17 55.24ZM190.17 52.6C191.21 52.6 192.09 52.36 192.81 51.88C193.546 51.4 194.106 50.704 194.49 49.792C194.89 48.88 195.09 47.792 195.09 46.528C195.09 44.608 194.658 43.12 193.794 42.064C192.946 41.008 191.738 40.48 190.17 40.48C189.146 40.48 188.266 40.72 187.53 41.2C186.794 41.664 186.226 42.352 185.826 43.264C185.442 44.16 185.25 45.248 185.25 46.528C185.25 48.432 185.682 49.92 186.546 50.992C187.41 52.064 188.618 52.6 190.17 52.6ZM202.966 55.192C202.47 55.192 202.086 55.056 201.814 54.784C201.558 54.496 201.43 54.104 201.43 53.608V39.64C201.43 39.128 201.566 38.744 201.838 38.488C202.11 38.216 202.494 38.08 202.99 38.08H208.774C210.63 38.08 212.062 38.528 213.07 39.424C214.078 40.304 214.582 41.544 214.582 43.144C214.582 44.184 214.35 45.08 213.886 45.832C213.438 46.584 212.782 47.16 211.918 47.56C211.054 47.96 210.006 48.16 208.774 48.16L208.99 47.8H209.782C210.438 47.8 211.006 47.96 211.486 48.28C211.982 48.6 212.414 49.104 212.782 49.792L214.582 53.128C214.774 53.464 214.862 53.792 214.846 54.112C214.83 54.432 214.71 54.696 214.486 54.904C214.262 55.096 213.934 55.192 213.502 55.192C213.07 55.192 212.718 55.104 212.446 54.928C212.174 54.736 211.934 54.448 211.726 54.064L209.302 49.6C209.014 49.056 208.67 48.696 208.27 48.52C207.886 48.328 207.39 48.232 206.782 48.232H204.502V53.608C204.502 54.104 204.374 54.496 204.118 54.784C203.862 55.056 203.478 55.192 202.966 55.192ZM204.502 45.952H208.246C209.35 45.952 210.182 45.728 210.742 45.28C211.318 44.816 211.606 44.128 211.606 43.216C211.606 42.32 211.318 41.648 210.742 41.2C210.182 40.736 209.35 40.504 208.246 40.504H204.502V45.952ZM219.515 55C218.987 55 218.579 54.864 218.291 54.592C218.019 54.304 217.883 53.896 217.883 53.368V39.712C217.883 39.184 218.019 38.784 218.291 38.512C218.579 38.224 218.987 38.08 219.515 38.08H224.171C227.003 38.08 229.187 38.808 230.723 40.264C232.275 41.72 233.051 43.808 233.051 46.528C233.051 47.888 232.851 49.096 232.451 50.152C232.067 51.192 231.491 52.072 230.723 52.792C229.971 53.512 229.043 54.064 227.939 54.448C226.851 54.816 225.595 55 224.171 55H219.515ZM220.955 52.456H223.979C224.971 52.456 225.827 52.336 226.547 52.096C227.283 51.84 227.891 51.472 228.371 50.992C228.867 50.496 229.235 49.88 229.475 49.144C229.715 48.392 229.835 47.52 229.835 46.528C229.835 44.544 229.347 43.064 228.371 42.088C227.395 41.112 225.931 40.624 223.979 40.624H220.955V52.456ZM237.796 55C237.268 55 236.86 54.864 236.572 54.592C236.3 54.304 236.164 53.896 236.164 53.368V39.712C236.164 39.184 236.3 38.784 236.572 38.512C236.86 38.224 237.268 38.08 237.796 38.08H246.364C246.764 38.08 247.068 38.184 247.276 38.392C247.5 38.6 247.612 38.896 247.612 39.28C247.612 39.68 247.5 39.992 247.276 40.216C247.068 40.424 246.764 40.528 246.364 40.528H239.116V45.184H245.836C246.252 45.184 246.564 45.288 246.772 45.496C246.98 45.704 247.084 46.008 247.084 46.408C247.084 46.808 246.98 47.112 246.772 47.32C246.564 47.528 246.252 47.632 245.836 47.632H239.116V52.552H246.364C246.764 52.552 247.068 52.656 247.276 52.864C247.5 53.072 247.612 53.376 247.612 53.776C247.612 54.176 247.5 54.48 247.276 54.688C247.068 54.896 246.764 55 246.364 55H237.796ZM252.021 55.192C251.525 55.192 251.141 55.056 250.869 54.784C250.613 54.496 250.485 54.104 250.485 53.608V39.64C250.485 39.128 250.621 38.744 250.893 38.488C251.165 38.216 251.549 38.08 252.045 38.08H257.829C259.685 38.08 261.117 38.528 262.125 39.424C263.133 40.304 263.637 41.544 263.637 43.144C263.637 44.184 263.405 45.08 262.941 45.832C262.493 46.584 261.837 47.16 260.973 47.56C260.109 47.96 259.061 48.16 257.829 48.16L258.045 47.8H258.837C259.493 47.8 260.061 47.96 260.541 48.28C261.037 48.6 261.469 49.104 261.837 49.792L263.637 53.128C263.829 53.464 263.917 53.792 263.901 54.112C263.885 54.432 263.765 54.696 263.541 54.904C263.317 55.096 262.989 55.192 262.557 55.192C262.125 55.192 261.773 55.104 261.501 54.928C261.229 54.736 260.989 54.448 260.781 54.064L258.357 49.6C258.069 49.056 257.725 48.696 257.325 48.52C256.941 48.328 256.445 48.232 255.837 48.232H253.557V53.608C253.557 54.104 253.429 54.496 253.173 54.784C252.917 55.056 252.533 55.192 252.021 55.192ZM253.557 45.952H257.301C258.405 45.952 259.237 45.728 259.797 45.28C260.373 44.816 260.661 44.128 260.661 43.216C260.661 42.32 260.373 41.648 259.797 41.2C259.237 40.736 258.405 40.504 257.301 40.504H253.557V45.952ZM274.989 55.192C274.493 55.192 274.109 55.056 273.837 54.784C273.581 54.496 273.453 54.104 273.453 53.608V39.472C273.453 38.96 273.581 38.568 273.837 38.296C274.109 38.024 274.493 37.888 274.989 37.888C275.485 37.888 275.861 38.024 276.117 38.296C276.389 38.568 276.525 38.96 276.525 39.472V45.136H285.237V39.472C285.237 38.96 285.365 38.568 285.621 38.296C285.893 38.024 286.277 37.888 286.773 37.888C287.269 37.888 287.645 38.024 287.901 38.296C288.173 38.568 288.309 38.96 288.309 39.472V53.608C288.309 54.104 288.173 54.496 287.901 54.784C287.645 55.056 287.269 55.192 286.773 55.192C286.277 55.192 285.893 55.056 285.621 54.784C285.365 54.496 285.237 54.104 285.237 53.608V47.704H276.525V53.608C276.525 54.104 276.397 54.496 276.141 54.784C275.885 55.056 275.501 55.192 274.989 55.192ZM293.648 55C293.12 55 292.712 54.864 292.424 54.592C292.152 54.304 292.016 53.896 292.016 53.368V39.712C292.016 39.184 292.152 38.784 292.424 38.512C292.712 38.224 293.12 38.08 293.648 38.08H302.216C302.616 38.08 302.92 38.184 303.128 38.392C303.352 38.6 303.464 38.896 303.464 39.28C303.464 39.68 303.352 39.992 303.128 40.216C302.92 40.424 302.616 40.528 302.216 40.528H294.968V45.184H301.688C302.104 45.184 302.416 45.288 302.624 45.496C302.832 45.704 302.936 46.008 302.936 46.408C302.936 46.808 302.832 47.112 302.624 47.32C302.416 47.528 302.104 47.632 301.688 47.632H294.968V52.552H302.216C302.616 52.552 302.92 52.656 303.128 52.864C303.352 53.072 303.464 53.376 303.464 53.776C303.464 54.176 303.352 54.48 303.128 54.688C302.92 54.896 302.616 55 302.216 55H293.648ZM307.872 55.192C307.376 55.192 306.992 55.056 306.72 54.784C306.464 54.496 306.336 54.104 306.336 53.608V39.64C306.336 39.128 306.472 38.744 306.744 38.488C307.016 38.216 307.4 38.08 307.896 38.08H313.68C315.536 38.08 316.968 38.528 317.976 39.424C318.984 40.304 319.488 41.544 319.488 43.144C319.488 44.184 319.256 45.08 318.792 45.832C318.344 46.584 317.688 47.16 316.824 47.56C315.96 47.96 314.912 48.16 313.68 48.16L313.896 47.8H314.688C315.344 47.8 315.912 47.96 316.392 48.28C316.888 48.6 317.32 49.104 317.688 49.792L319.488 53.128C319.68 53.464 319.768 53.792 319.752 54.112C319.736 54.432 319.616 54.696 319.392 54.904C319.168 55.096 318.84 55.192 318.408 55.192C317.976 55.192 317.624 55.104 317.352 54.928C317.08 54.736 316.84 54.448 316.632 54.064L314.208 49.6C313.92 49.056 313.576 48.696 313.176 48.52C312.792 48.328 312.296 48.232 311.688 48.232H309.408V53.608C309.408 54.104 309.28 54.496 309.024 54.784C308.768 55.056 308.384 55.192 307.872 55.192ZM309.408 45.952H313.152C314.256 45.952 315.088 45.728 315.648 45.28C316.224 44.816 316.512 44.128 316.512 43.216C316.512 42.32 316.224 41.648 315.648 41.2C315.088 40.736 314.256 40.504 313.152 40.504H309.408V45.952ZM324.421 55C323.893 55 323.485 54.864 323.197 54.592C322.925 54.304 322.789 53.896 322.789 53.368V39.712C322.789 39.184 322.925 38.784 323.197 38.512C323.485 38.224 323.893 38.08 324.421 38.08H332.989C333.389 38.08 333.693 38.184 333.901 38.392C334.125 38.6 334.237 38.896 334.237 39.28C334.237 39.68 334.125 39.992 333.901 40.216C333.693 40.424 333.389 40.528 332.989 40.528H325.741V45.184H332.461C332.877 45.184 333.189 45.288 333.397 45.496C333.605 45.704 333.709 46.008 333.709 46.408C333.709 46.808 333.605 47.112 333.397 47.32C333.189 47.528 332.877 47.632 332.461 47.632H325.741V52.552H332.989C333.389 52.552 333.693 52.656 333.901 52.864C334.125 53.072 334.237 53.376 334.237 53.776C334.237 54.176 334.125 54.48 333.901 54.688C333.693 54.896 333.389 55 332.989 55H324.421Z" fill="#1E1E1E" fill-opacity="0.53"/>
<defs>
<filter id="filter0_d_50_70" x="128" y="15" width="270" height="74" filterUnits="userSpaceOnUse" color-interpolation-filters="sRGB">
<feFlood flood-opacity="0" result="BackgroundImageFix"/>
<feColorMatrix in="SourceAlpha" type="matrix" values="0 0 0 0 0 0 0 0 0 0 0 0 0 0 0 0 0 0 127 0" result="hardAlpha"/>
<feOffset dx="5" dy="5"/>
<feGaussianBlur stdDeviation="5"/>
<feComposite in2="hardAlpha" operator="out"/>
<feColorMatrix type="matrix" values="0 0 0 0 0 0 0 0 0 0 0 0 0 0 0 0 0 0 0.25 0"/>
<feBlend mode="normal" in2="BackgroundImageFix" result="effect1_dropShadow_50_70"/>
<feBlend mode="normal" in="SourceGraphic" in2="effect1_dropShadow_50_70" result="shape"/>
</filter>
</defs>
</svg>
